HIERARCHY
ROOT Hips
{
    OFFSET 0.000000 0.000000 0.000000
    CHANNELS 6 Xposition Yposition Zposition Zrotation Xrotation Yrotation
    JOINT Spine
    {
        OFFSET -0.000000 14.517291 0.000000
        CHANNELS 3 Zrotation Xrotation Yrotation
        JOINT Spine1
        {
            OFFSET -0.000000 37.558300 0.000000
            CHANNELS 3 Zrotation Xrotation Yrotation
            JOINT Neck
            {
                OFFSET -0.000000 37.404057 3.400369
                CHANNELS 3 Zrotation Xrotation Yrotation
                JOINT Head
                {
                    OFFSET -0.000000 24.785618 -3.540803
                    CHANNELS 3 Zrotation Xrotation Yrotation
                    End Site
                    {
                        OFFSET -0.000000 35.408028 0.000000
                    }
                }
            }
            JOINT LeftShoulder
            {
                OFFSET 6.992933 33.973492 -0.192664
                CHANNELS 3 Zrotation Xrotation Yrotation
                JOINT LeftArm
                {
                    OFFSET 21.527611 0.000000 0.000000
                    CHANNELS 3 Zrotation Xrotation Yrotation
                    JOINT LeftForeArm
                    {
                        OFFSET 56.353916 0.000000 0.000000
                        CHANNELS 3 Zrotation Xrotation Yrotation
                        JOINT LeftHand
                        {
                            OFFSET 47.774071 0.000000 0.000000
                            CHANNELS 3 Zrotation Xrotation Yrotation
                            End Site
                            {
                                OFFSET 26.556021 0.000000 0.000000
                            }
                        }
                    }
                }
            }
            JOINT RightShoulder
            {
                OFFSET -7.065357 33.973492 -0.192664
                CHANNELS 3 Zrotation Xrotation Yrotation
                JOINT RightArm
                {
                    OFFSET -21.527611 0.000000 0.000000
                    CHANNELS 3 Zrotation Xrotation Yrotation
                    JOINT RightForeArm
                    {
                        OFFSET -56.353916 0.000000 0.000000
                        CHANNELS 3 Zrotation Xrotation Yrotation
                        JOINT RightHand
                        {
                            OFFSET -47.774071 0.000000 0.000000
                            CHANNELS 3 Zrotation Xrotation Yrotation
                            End Site
                            {
                                OFFSET -26.556021 0.000000 0.000000
                            }
                        }
                    }
                }
            }
        }
    }
    JOINT LeftUpLeg
    {
        OFFSET 17.704014 0.000000 0.000000
        CHANNELS 3 Zrotation Xrotation Yrotation
        JOINT LeftLeg
        {
            OFFSET -0.000000 -81.181816 0.000000
            CHANNELS 3 Zrotation Xrotation Yrotation
            JOINT LeftFoot
            {
                OFFSET -0.000000 -62.821102 0.000000
                CHANNELS 3 Zrotation Xrotation Yrotation
                JOINT LeftToeBase
                {
                    OFFSET -0.000000 -11.507608 26.556021
                    CHANNELS 3 Zrotation Xrotation Yrotation
                    End Site
                    {
                        OFFSET -0.000000 0.000000 7.081605
                    }
                }
            }
        }
    }
    JOINT RightUpLeg
    {
        OFFSET -17.704014 0.000000 0.000000
        CHANNELS 3 Zrotation Xrotation Yrotation
        JOINT RightLeg
        {
            OFFSET -0.000000 -81.181816 0.000000
            CHANNELS 3 Zrotation Xrotation Yrotation
            JOINT RightFoot
            {
                OFFSET -0.000000 -62.821102 0.000000
                CHANNELS 3 Zrotation Xrotation Yrotation
                JOINT RightToeBase
                {
                    OFFSET -0.000000 -11.507608 26.556021
                    CHANNELS 3 Zrotation Xrotation Yrotation
                    End Site
                    {
                        OFFSET -0.000000 0.000000 7.081605
                    }
                }
            }
        }
    }
}
MOTION
Frames:    5
Frame Time:    0.008333
-31.298452    166.293030    -26.028490    -7.703149    -21.522997    45.276543    4.057096    7.112130    -2.366960    4.240562    4.567947    -0.875801    23.281487    -3.087060    0.381194    -5.591258    -2.269939    -4.663273    10.946730    6.868568    -22.744698    -28.069736    16.730024    -41.352551    -15.140808    -18.976110    -112.075821    -4.358352    -38.635910    -7.771429    9.063510    -0.104107    -4.737332    21.174717    -5.633570    40.629032    -20.089056    -3.946770    56.387089    -6.928166    4.685549    36.275074    22.108303    -5.599292    -4.461726    -3.534117    33.702248    -25.276413    6.739588    -14.597784    27.798117    0.000000    0.000000    0.000000    -90.940811    -46.969936    -56.862095    6.404212    17.627710    -7.300808    11.651846    19.779964    -19.157732    0.000000    0.000000    0.000000    
-31.277180    166.293304    -26.066780    -7.742004    -21.516857    45.176697    4.079519    7.096852    -2.360548    4.229969    4.559007    -0.872575    23.313246    -3.110825    0.403112    -5.573927    -2.217383    -4.645945    10.951723    6.881921    -22.718405    -28.186014    16.718849    -41.410446    -15.066746    -19.034142    -112.109016    -4.378719    -38.602169    -7.806746    9.088233    -0.101702    -4.727505    21.181789    -5.669849    40.644157    -20.036381    -3.876714    56.394100    -6.982774    4.709403    36.283871    22.126272    -5.577929    -4.401518    -3.564933    33.681690    -25.177341    6.739461    -14.616627    27.763771    0.000000    0.000000    0.000000    -90.899010    -47.030224    -56.903725    6.361785    17.568213    -7.307049    11.696478    19.829714    -19.203959    0.000000    0.000000    0.000000    
-31.257626    166.291946    -26.103720    -7.771579    -21.509233    45.068058    4.064982    7.094867    -2.340223    4.252063    4.545341    -0.866546    23.361919    -3.125170    0.421519    -5.584003    -2.178946    -4.638522    10.958261    6.909231    -22.696815    -28.295317    16.698547    -41.500217    -15.007030    -19.102896    -112.135048    -4.382284    -38.594749    -7.793077    9.120418    -0.094947    -4.720140    21.159948    -5.679962    40.662403    -20.007004    -3.844351    56.371796    -7.050613    4.697667    36.290543    22.136301    -5.564743    -4.281549    -3.543154    33.729553    -25.365816    6.772167    -14.643898    27.939257    0.000000    0.000000    0.000000    -90.864586    -47.099171    -56.936989    6.342617    17.494577    -7.344211    11.673615    19.912867    -19.202738    0.000000    0.000000    0.000000    
-31.230963    166.290970    -26.133615    -7.787943    -21.519596    44.968254    4.067643    7.108065    -2.332217    4.260768    4.539182    -0.863795    23.379732    -3.142144    0.441315    -5.556804    -2.136836    -4.618360    10.949361    6.931958    -22.669958    -28.401775    16.666286    -41.557842    -14.905453    -19.151606    -112.158691    -4.489345    -38.508858    -7.914375    9.144459    -0.084262    -4.704517    21.140635    -5.664598    40.671272    -20.012941    -3.842700    56.336372    -7.072830    4.688969    36.262222    22.154070    -5.514220    -4.145310    -3.519745    33.725967    -25.353674    6.749302    -14.686371    27.888502    0.000000    0.000000    0.000000    -90.814606    -47.160900    -56.946407    6.334280    17.440590    -7.380653    11.639946    19.970264    -19.182789    0.000000    0.000000    0.000000    
-31.207529    166.278122    -26.168919    -7.805422    -21.505402    44.870987    4.040004    7.105373    -2.325062    4.295101    4.535545    -0.863214    23.379419    -3.168917    0.461751    -5.520555    -2.087562    -4.594505    10.921439    6.934558    -22.659395    -28.503614    16.684586    -41.603901    -14.758749    -19.276306    -112.191910    -4.529444    -38.440010    -7.943967    9.158448    -0.070474    -4.692117    21.124907    -5.656640    40.685463    -20.020538    -3.837825    56.306095    -7.068210    4.694331    36.239105    22.155386    -5.494116    -4.010765    -3.501767    33.740246    -25.353212    6.732853    -14.732013    27.861601    0.000000    0.000000    0.000000    -90.817131    -47.230988    -57.020485    6.305967    17.404041    -7.430435    11.642649    20.039257    -19.179976    0.000000    0.000000    0.000000    
